# xmcd
#
# Track frame offsets: 
#        150
#        17001
#        36551
#        55642
#        65350
#        80426
#        103948
#        121915
#        142252
#        160330
#
# Disc length: 2537 seconds
#
# Revision: 0
# Processed by: cddbd v1.4PL0 Copyright (c) Steve Scherf et al.
# Submitted via: ExactAudioCopy v0.90b4
#
DISCID=8909e70a
DTITLE=Stringmansassy - Beautiful Day
DYEAR=2002
DGENRE=
TTITLE0=Gentle Rain
TTITLE1=Helicopter
TTITLE2=Comes Back Around
TTITLE3=Before and After Rain
TTITLE4=Beautiful Day
TTITLE5=A Day in the Life of a Fool
TTITLE6=Berlin Café
TTITLE7=A Little Warm Death
TTITLE8=Lucky Day
TTITLE9=Red On Blue
EXTD=
EXTT0=
EXTT1=
EXTT2=
EXTT3=
EXTT4=
EXTT5=
EXTT6=
EXTT7=
EXTT8=
EXTT9=
PLAYORDER=
